<?xml version="1.0" encoding="utf-8"?>
<!-- Generator: Adobe Illustrator 23.0.3, SVG Export Plug-In . SVG Version: 6.00 Build 0)  -->
<svg version="1.1" id="Capa_1" xmlns="http://www.w3.org/2000/svg" xmlns:xlink="http://www.w3.org/1999/xlink" x="0px" y="0px"
	 viewBox="0 0 68 56.7" style="enable-background:new 0 0 68 56.7;" xml:space="preserve">
<style type="text/css">
	.st0{fill:#3F61B6;}
</style>
<g>
	<g>
		<g>
			<g>
				<path class="st0" d="M15.4,7.7c6.9,0,11.7,2.5,14.9,7.8v29c-5.9-4.1-11.1-4.7-14.9-4.7c-0.1,0-0.1-0.1-0.1-0.1V7.8
					C15.3,7.8,15.3,7.8,15.4,7.7C15.4,7.7,15.4,7.7,15.4,7.7 M15.4,5.7c-0.6,0-1.1,0.2-1.5,0.6c-0.4,0.4-0.6,0.9-0.6,1.5v31.8
					c0,1.2,1,2.1,2.1,2.1c4.2,0,8.9,0.8,14.3,4.7c0.3,0.2,0.6,0.3,1,0.3c0.9,0,1.7-0.7,1.7-1.7V15.5c0-0.4-0.1-0.8-0.3-1.1
					C27.4,6.9,20.4,5.7,15.4,5.7L15.4,5.7z"/>
			</g>
			<g>
				<path class="st0" d="M52.6,7.7C52.6,7.7,52.6,7.7,52.6,7.7c0.1,0.1,0.1,0.1,0.1,0.1v31.8c0,0.1-0.1,0.2-0.1,0.2
					c-3.8,0-9,0.5-14.9,4.7l0-29C40.9,10.2,45.7,7.8,52.6,7.7 M52.6,5.7c-4.9,0-11.9,1.2-16.6,8.7c-0.2,0.3-0.3,0.7-0.3,1.1v29.6
					c0,1,0.8,1.7,1.7,1.7c0.3,0,0.7-0.1,1-0.3c5.4-3.9,10-4.7,14.3-4.7c1.2,0,2.1-1,2.1-2.2V7.8c0-0.6-0.2-1.1-0.6-1.5
					C53.7,5.9,53.2,5.7,52.6,5.7L52.6,5.7z"/>
			</g>
			<g>
				<path class="st0" d="M58.2,15.1c1.4,0.2,3.3,1.2,3.4,1.8v32c0,0,0,0.1,0,0.1l0,0l0,0c0,0,0,0,0,0c-3.3-0.8-9.4-1.5-14.8-1.6
					c1.3-0.2,2.6-0.4,4.1-0.4c4.1,0,7.4-3.3,7.4-7.4V15.1 M57.9,13c-0.9,0-1.7,0.7-1.7,1.7v24.9c0,3-2.4,5.4-5.4,5.4
					c-2.2,0-4.8,0.3-7.4,1.2c-1.8,0.6-1.3,3.2,0.6,3.2c0,0,0.1,0,0.1,0c0.7,0,1.4,0,2.2,0c5.5,0,11.7,0.8,14.8,1.5
					c0.2,0,0.3,0.1,0.5,0.1c0.5,0,0.9-0.2,1.3-0.5c0.5-0.4,0.8-1,0.8-1.7v-32C63.7,14.7,59.9,13,57.9,13L57.9,13z"/>
			</g>
			<g>
				<path class="st0" d="M9.8,15.1v24.6c0,4.1,3.3,7.4,7.4,7.4c1.6,0,2.9,0.1,4.2,0.4c-5.4,0-11.6,0.8-15,1.6c0,0-0.1,0-0.1,0
					c0,0,0-0.1,0-0.1l0-32C6.5,16.3,8.4,15.2,9.8,15.1 M10.2,13L10.2,13c-2.1,0-5.8,1.7-5.8,3.8v32c0,0.7,0.3,1.3,0.8,1.7
					C5.6,50.8,6,51,6.5,51c0.2,0,0.3,0,0.5,0c3.2-0.7,9.3-1.5,14.8-1.5c0.8,0,1.5,0,2.2,0c0,0,0.1,0,0.1,0c1.8,0,2.3-2.6,0.6-3.2
					c-2.6-1-5.2-1.2-7.4-1.2c-3,0-5.4-2.4-5.4-5.4V14.7C11.8,13.8,11.1,13,10.2,13L10.2,13z"/>
			</g>
		</g>
	</g>
</g>
</svg>
