<?xml version="1.0" encoding="utf-8"?>
<!-- Generator: Adobe Illustrator 23.0.3, SVG Export Plug-In . SVG Version: 6.00 Build 0)  -->
<svg version="1.1" id="Capa_1" xmlns="http://www.w3.org/2000/svg" xmlns:xlink="http://www.w3.org/1999/xlink" x="0px" y="0px"
	 viewBox="0 0 56.7 56.7" style="enable-background:new 0 0 56.7 56.7;" xml:space="preserve">
<style type="text/css">
	.st0{fill:none;stroke:#3F61B6;stroke-width:2;stroke-linecap:round;stroke-linejoin:round;stroke-miterlimit:10;}
	.st1{fill:#3F61B6;}
</style>
<g>
	<path id="Shape" class="st0" d="M46.2,49.6l4.1-8.7c0.4-0.7,0.1-1.6-0.6-2l-8.4-5.4c-0.6-0.4-1.4-0.3-1.9,0.2L36,37.1
		c-0.3,0.3-0.8,0.5-1.3,0.4c-1.7-0.2-5.9-1.2-10.1-5.4l0,0c-4.2-4.2-5.2-8.4-5.4-10.1c-0.1-0.5,0.1-0.9,0.4-1.3l3.4-3.4
		c0.5-0.5,0.6-1.3,0.2-1.9L17.8,7c-0.4-0.7-1.3-0.9-2-0.6l-8.7,4.1c-0.6,0.3-0.9,0.9-0.8,1.5c0.5,4.3,2.4,15,12.8,25.5
		S40.3,50,44.6,50.4"/>
	<path class="st1" d="M28.4,14.3c-0.6,0-1,0.5-1,1s0.5,1,1,1c6.6,0,11.9,5.4,11.9,11.9c0,0.6,0.5,1,1,1s1-0.5,1-1
		C42.3,20.6,36.1,14.4,28.4,14.3z"/>
	<path class="st1" d="M28.4,6.7c-0.6,0-1,0.5-1,1s0.5,1,1,1c10.8,0,19.5,8.8,19.6,19.6c0,0.6,0.5,1,1,1c0.3,0,0.5-0.1,0.7-0.3
		s0.3-0.5,0.3-0.7C50,16.4,40.3,6.7,28.4,6.7z"/>
</g>
</svg>
