<?xml version="1.0" encoding="utf-8"?>
<!-- Generator: Adobe Illustrator 23.0.3, SVG Export Plug-In . SVG Version: 6.00 Build 0)  -->
<svg version="1.1" id="Capa_1" xmlns="http://www.w3.org/2000/svg" xmlns:xlink="http://www.w3.org/1999/xlink" x="0px" y="0px"
	 viewBox="0 0 56.7 56.7" style="enable-background:new 0 0 56.7 56.7;" xml:space="preserve">
<style type="text/css">
	.st0{fill:none;stroke:#3F61B6;stroke-width:2;stroke-linecap:round;stroke-linejoin:round;stroke-miterlimit:10;}
</style>
<g>
	<g>
		<g>
			<path class="st0" d="M51.4,26.2L44.2,19v-8.4c0-1.5-1.2-2.7-2.7-2.7s-2.7,1.2-2.7,2.7v2.9l-5.4-5.4c-2.7-2.7-7.3-2.7-10,0
				L5.3,26.2c-1.1,1.1-1.1,2.8,0,3.9c1.1,1.1,2.8,1.1,3.9,0L27.2,12c0.6-0.6,1.6-0.6,2.2,0l18.1,18.1c0.5,0.5,1.2,0.8,1.9,0.8
				s1.4-0.3,1.9-0.8C52.5,29,52.5,27.3,51.4,26.2z"/>
			<path class="st0" d="M29.3,19.2c-0.5-0.5-1.4-0.5-1.9,0L11.5,35.1c-0.3,0.3-0.4,0.6-0.4,1v9.6c0,2.7,2.2,4.9,4.9,4.9h7.9V38.4
				h8.9v12.2h7.9c2.7,0,4.9-2.2,4.9-4.9V36c0-0.4-0.1-0.7-0.4-1L29.3,19.2z"/>
		</g>
	</g>
</g>
</svg>
