<?xml version="1.0" encoding="utf-8"?>
<!-- Generator: Adobe Illustrator 23.0.3, SVG Export Plug-In . SVG Version: 6.00 Build 0)  -->
<svg version="1.1" id="Capa_1" xmlns="http://www.w3.org/2000/svg" xmlns:xlink="http://www.w3.org/1999/xlink" x="0px" y="0px"
	 viewBox="0 0 56.7 56.7" style="enable-background:new 0 0 56.7 56.7;" xml:space="preserve">
<style type="text/css">
	.st0{fill:#3F61B6;}
</style>
<g>
	<g>
		<path class="st0" d="M28.4,7.6c11.5,0,20.8,9.3,20.8,20.8s-9.3,20.8-20.8,20.8S7.6,39.9,7.6,28.4S16.9,7.6,28.4,7.6 M24.6,28.7
			c-4.4,0.1-7.9,3.7-7.9,8.1c0,1.3,0.6,2.6,1.6,3.5c2.9,2.4,6.4,3.7,10.1,3.7s7.2-1.3,10.1-3.7c1-0.9,1.6-2.1,1.6-3.5
			c0-4.4-3.5-8-7.9-8.1c2.6-1.4,4.3-4,4.3-7.1c0-4.4-3.6-8.1-8.1-8.1c-2.2,0-4.3,0.9-5.8,2.4c-1.5,1.5-2.3,3.5-2.2,5.6
			C20.3,24.7,22.1,27.4,24.6,28.7 M28.4,5.6C15.8,5.6,5.6,15.8,5.6,28.4s10.2,22.8,22.8,22.8S51.2,41,51.2,28.4S40.9,5.6,28.4,5.6
			L28.4,5.6z M28.4,27.7c-3.4,0-6.1-2.7-6.1-6.1c-0.1-3.3,2.7-6.1,6.1-6.1s6.1,2.7,6.1,6.1C34.5,25,31.7,27.7,28.4,27.7L28.4,27.7z
			 M28.4,42c-3.3,0-6.4-1.2-8.8-3.2c-0.6-0.5-0.9-1.2-0.9-1.9c0-3.4,2.7-6.1,6.1-6.1H32c3.4,0,6.1,2.7,6.1,6.1
			c0,0.7-0.3,1.5-0.9,1.9C34.8,40.8,31.7,42,28.4,42L28.4,42z"/>
	</g>
</g>
</svg>
