<?xml version="1.0" encoding="utf-8"?>
<!-- Generator: Adobe Illustrator 22.0.0, SVG Export Plug-In . SVG Version: 6.00 Build 0)  -->
<svg version="1.1" id="Слой_1" xmlns="http://www.w3.org/2000/svg" xmlns:xlink="http://www.w3.org/1999/xlink" x="0px" y="0px"
	 viewBox="0 0 232.4 73.7" style="enable-background:new 0 0 232.4 73.7;" xml:space="preserve">
<style type="text/css">
	.st0{fill:url(#SVGID_1_);}
	.st1{fill:url(#SVGID_2_);}
	.st2{fill:url(#SVGID_3_);}
	.st3{fill:url(#SVGID_4_);}
	.st4{fill:url(#SVGID_5_);}
	.st5{fill:url(#SVGID_6_);}
</style>
<g>
	<linearGradient id="SVGID_1_" gradientUnits="userSpaceOnUse" x1="153.1883" y1="35.4176" x2="229.9839" y2="38.6023">
		<stop  offset="0" style="stop-color:#145887"/>
		<stop  offset="1" style="stop-color:#2484C6"/>
	</linearGradient>
	<path class="st0" d="M212.1,7.2l12.5,23l-3.5-1.4l-2.3-1l-0.9,2.4c-0.1,0.4-14,35.8-50.3,37.9c1.3-0.5,2.6-1.2,3.9-1.9
		c9.6-5,22.2-15.6,28.2-37.3l1.1-4.1l-4.1,1.1l-3,0.8L212.1,7.2 M212.6,3.1l-26.4,28l11.2-2.9c-11.2,40.5-45.6,41.3-45.6,41.3
		c4.4,0.8,8.5,1.1,12.4,1.1c40.9,0,56-39.6,56-39.6l9.9,4.1L212.6,3.1L212.6,3.1z"/>
	<linearGradient id="SVGID_2_" gradientUnits="userSpaceOnUse" x1="126.6072" y1="51.4547" x2="126.6072" y2="10.4634">
		<stop  offset="0" style="stop-color:#145887"/>
		<stop  offset="1" style="stop-color:#2484C6"/>
	</linearGradient>
	<path class="st1" d="M145.3,12.9l-1.3,5.9h-12.1c-1.2,0-2.2,0.8-2.4,2L123.8,49h-8l5.5-27.3c0.1-0.7,0-1.5-0.5-2
		c-0.5-0.6-1.2-0.9-1.9-0.9h-11l1.3-5.9H145.3 M148.4,10.5h-41.2l-2.5,10.8h14.1l-6.1,30.2h13l6.1-30.2H146L148.4,10.5L148.4,10.5z"
		/>
	<linearGradient id="SVGID_3_" gradientUnits="userSpaceOnUse" x1="33.2978" y1="51.3158" x2="33.2978" y2="10.4593">
		<stop  offset="0" style="stop-color:#145887"/>
		<stop  offset="1" style="stop-color:#2484C6"/>
	</linearGradient>
	<path class="st2" d="M57.5,12.9c0,0,0.1,0,0.1,0h1.2c0.9,0,1.7,0.4,2.3,1.1c0.6,0.7,0.8,1.6,0.6,2.6l-6.6,32.3h-8l4.1-20.2
		c0.2-0.8,0-1.7-0.6-2.3c-0.5-0.6-1.3-1-2.1-1c-1,0-1.9,0.6-2.4,1.5L35.9,46c-0.9,1.8-2.8,2.9-4.7,2.9h-3.5c-0.9,0-1.8-0.7-1.9-1.7
		l-2.7-19.9c-0.2-1.4-1.3-2.4-2.7-2.4c-1.3,0-2.4,0.9-2.7,2.2l-4.4,21.7h-8l6.1-30.1c0.7-3.4,3.6-5.8,7-5.8c0.1,0,0.1,0,0.2,0l4.8,0
		l0.3,0l0.1,0c1.4,0,2.5,1.1,2.7,2.4l3.2,23.2c0.2,1.4,1.4,2.4,2.7,2.4c1,0,1.9-0.5,2.4-1.4l12.8-23.3c1-1.9,3-3.1,5.1-3.2
		c0.1,0,0.2,0,0.3,0l0.1,0L57.5,12.9 M57.7,10.5l-4.7,0c0,0,0,0,0,0h-0.4l0,0c-3,0.2-5.7,1.8-7.2,4.5L32.5,38.3
		c-0.1,0.1-0.2,0.2-0.3,0.2c-0.1,0-0.3-0.1-0.3-0.3L28.8,15c-0.4-2.6-2.6-4.6-5.2-4.6l-0.1,0l0,0h-0.3l-4.9,0l0,0
		c-4.5,0-8.4,3.2-9.4,7.8L2.3,51c0,0.2,0.1,0.4,0.3,0.4H15c0.1,0,0.3-0.1,0.3-0.2l4.8-23.5c0-0.2,0.2-0.2,0.3-0.2
		c0.1,0,0.3,0.1,0.3,0.3l2.7,19.9c0.3,2.2,2.1,3.8,4.3,3.8h3.5c2.9,0,5.5-1.6,6.9-4.2L48.3,28c0.1-0.1,0.2-0.2,0.3-0.2
		c0.2,0,0.3,0.1,0.3,0.4L44.2,51c0,0.2,0.1,0.4,0.3,0.4H57c0.1,0,0.3-0.1,0.3-0.2l6.9-34c0.7-3.4-1.9-6.6-5.3-6.6L57.7,10.5
		L57.7,10.5L57.7,10.5z"/>
	<linearGradient id="SVGID_4_" gradientUnits="userSpaceOnUse" x1="165.387" y1="51.3158" x2="165.387" y2="10.4634">
		<stop  offset="0" style="stop-color:#145887"/>
		<stop  offset="1" style="stop-color:#2484C6"/>
	</linearGradient>
	<path class="st3" d="M165.1,10.5v2.5l17.3,0l-1,4.7l-12.5,0c-5.3,0-10.5,4.1-11.6,9.2l-1.5,7.1c-0.5,2.2,0.1,4.5,1.7,6.4
		c1.6,2,4,3.2,6.4,3.2h12.6l-1.1,5.3h-17.7c-3,0-5.7-1.3-7.6-3.7c-1.9-2.4-2.7-5.5-2.1-8.6l2.5-11.7c1.5-7,7.6-12,14.6-12V10.5
		 M165.1,10.5c-8.2,0-15.3,5.8-17,14l-2.5,11.7c-1.6,7.8,4.2,15.2,12.1,15.2h19.7l2.2-10.2h-15.7c-3.3,0-6.4-3.3-5.7-6.6l1.5-7.1
		c0.9-4.1,5.1-7.2,9.2-7.2l14.5,0l2-9.7L165.1,10.5L165.1,10.5z"/>
	<linearGradient id="SVGID_5_" gradientUnits="userSpaceOnUse" x1="82.6322" y1="51.3158" x2="82.6322" y2="10.4634">
		<stop  offset="0" style="stop-color:#145887"/>
		<stop  offset="1" style="stop-color:#2484C6"/>
	</linearGradient>
	<path class="st4" d="M90.6,13c3,0,5.9,1.4,7.7,3.8c1.9,2.4,2.6,5.4,1.9,8.4l-2.5,11.7c-1.5,7-7.6,12-14.6,12H65.3l1.1-5.1h13.1
		c4.8,0,9.1-3.2,10.6-7.8c0.2-0.8,0.1-1.6-0.3-2.3c-0.5-0.7-1.2-1-2-1H77.4l0.8-4h11.4c1.3,0,2.4-1.1,2.5-2.5c0-2.1-0.8-4.1-2.2-5.5
		c-1.4-1.5-3.4-2.3-5.5-2.3H71.8l1.1-5.2H90.6 M90.6,10.5H70.9l-2.2,10.2h15.7c3,0,5.2,2.5,5.2,5.3H76.3l-1.9,9h13.4
		c-1.2,3.6-4.4,6.1-8.2,6.1H64.4l-2.1,10.1h20.9c8.2,0,15.3-5.8,17-14l2.5-11.7C104.3,17.8,98.5,10.5,90.6,10.5L90.6,10.5z"/>
	<g>
		<linearGradient id="SVGID_6_" gradientUnits="userSpaceOnUse" x1="125.8429" y1="59.9068" x2="173.8934" y2="61.8994">
			<stop  offset="0" style="stop-color:#145887"/>
			<stop  offset="1" style="stop-color:#2484C6"/>
		</linearGradient>
		<path class="st5" d="M148,54.8h-21.9C130.9,60,139.7,67,151.5,67c6.6,0,14.2-2.2,22.5-8.2c0,0-3.9,1.7-9.5,1.7
			C159.8,60.5,153.8,59.3,148,54.8L148,54.8z"/>
	</g>
</g>
</svg>
